<svg width="124" height="155" viewBox="0 0 124 155" fill="none" xmlns="http://www.w3.org/2000/svg">
<mask id="mask0_1_13" style="mask-type:luminance" maskUnits="userSpaceOnUse" x="0" y="0" width="124" height="155">
<path d="M124 0H0V155H124V0Z" fill="white"/>
</mask>
<g mask="url(#mask0_1_13)">
<path d="M62.0057 119.651V155.001L124 119.193V83.8474L62.0057 119.651Z" fill="#3FAAD7"/>
<path d="M89.7571 51.3784L120.346 33.7032L62.0057 0V35.3492L89.7571 51.3784Z" fill="#0064AF"/>
<path d="M37.9117 61.9331V97.2938L62.0046 111.207V75.8622L37.9117 61.9331Z" fill="#A1D9DF"/>
<path d="M124 40.0393L62.0057 75.8622V111.207L124 75.3988V40.0393Z" fill="#3FAAD7"/>
<path d="M3.69177 33.6826L34.0973 51.461L62.0046 35.3492V0L3.69177 33.6826Z" fill="#3FAAD7"/>
<path d="M30.5993 101.518V57.6926L0 40.0232V119.192L62.0046 155V119.65L30.5993 101.518Z" fill="#A1D9DF"/>
</g>
</svg>
